<?xml version="1.0" encoding="UTF-8"?><svg id="Layer_1" xmlns="http://www.w3.org/2000/svg" viewBox="0 0 1020.47 841.89"><text transform="translate(492.37 -79.7)" fill="#231f20" font-family="OumaLatinVF-Regular, &apos;Ouma Latin VF&apos;" font-size="217.97" font-variation-settings="&apos;wght&apos; 400"><tspan x="0" y="0">C</tspan></text><text transform="translate(642.24 -79.7)" fill="#231f20" font-family="OumaLatinVF-Regular, &apos;Ouma Latin VF&apos;" font-size="217.97" font-variation-settings="&apos;wght&apos; 400"><tspan x="0" y="0">O</tspan></text><path d="M753.96,422.23c-3.18-4.93-7.9-8.52-14.15-10.79,4.09-2.1,7.19-4.43,9.3-6.97,3.76-4.54,5.64-10.54,5.64-18.01s-1.88-13.47-5.64-18.68c-6.25-8.47-16.88-12.81-31.88-13.03h-59.43v76.15l-26.97-76.15h-28.89l-35.81,100.36h-58.79v-100.36h-25.57v14.19c-7.92-11.38-21.62-17.09-41.14-17.09-20.59,0-37.74,7.53-51.46,22.58-10.68,11.73-17.76,25.84-21.25,42.33-1.16,5.46-1.82,10.63-2,15.52h-15.9c-3.38,8.03-7.25,14.5-11.62,19.42-8.36,9.35-18.62,14.03-30.8,14.03-13.23,0-22.23-4.44-27.02-13.33-4.79-8.89-5.66-20.48-2.61-34.77,3.71-17.45,10.14-30.39,19.3-38.84,9.16-8.45,19.74-12.67,31.75-12.67,9.85,0,17.02,2.3,21.5,6.91,4.48,4.61,6.81,10.85,6.97,18.74h16.1c1.27-10.35-1.49-19.59-8.3-27.72s-17.93-12.2-33.37-12.2c-18.1,0-33.62,6.25-46.57,18.76-11.95,11.51-19.84,26.26-23.66,44.24-5.04,23.69-2.44,41.2,7.8,52.54,7.8,8.58,18.79,12.87,32.95,12.87,16.44,0,30.63-5.23,42.58-15.69,9.73-8.53,16.67-19.07,20.85-31.6-.32,11.19,1.94,20.9,6.77,29.11,8.08,12.4,21.5,18.59,40.26,18.59,20.09,0,37.08-7.08,50.97-21.25,7.63-7.81,13.59-16.91,17.9-27.28v44.96h103.24l8.47-25.15h45.07l7.89,25.15h66.81c6.25,0,12.05-.55,17.39-1.66,5.34-1.11,9.97-3.15,13.9-6.14,3.49-2.6,6.39-5.81,8.72-9.63,3.65-5.75,5.48-12.26,5.48-19.51s-1.59-13-4.77-17.93ZM470.34,414.26c-2.88,13.56-8.67,25.55-17.39,35.98-8.72,10.43-20.35,15.65-34.9,15.65-15.33,0-25.43-4.63-30.3-13.9-4.87-9.27-5.87-20.65-2.99-34.16,3.6-16.88,10.31-29.65,20.13-38.31,9.82-8.66,21.04-12.99,33.66-12.99s22.31,4.37,27.93,13.12c5.62,8.74,6.9,20.28,3.86,34.62ZM600.36,430.86l15.77-48.14,15.27,48.14h-31.04ZM682.2,375.99h26.89c5.92,0,10.79.64,14.61,1.91,4.43,1.83,6.64,5.59,6.64,11.29,0,5.15-1.66,8.71-4.98,10.71-3.38,2.05-7.75,3.07-13.12,3.07h-30.05v-26.98ZM724.78,453.69c-2.99,1.44-7.17,2.16-12.53,2.16h-30.05v-32.62h30.46c5.31.05,9.43.75,12.37,2.07,5.26,2.38,7.89,6.75,7.89,13.12,0,7.53-2.71,12.62-8.13,15.27Z" fill="#fff"/><text/></svg>